<?xml version="1.0" encoding="utf-8"?>
<!-- Generator: Adobe Illustrator 24.0.0, SVG Export Plug-In . SVG Version: 6.00 Build 0)  -->
<svg version="1.1" id="Layer_1" xmlns="http://www.w3.org/2000/svg" xmlns:xlink="http://www.w3.org/1999/xlink" x="0px" y="0px"
	 viewBox="0 0 496 512" style="enable-background:new 0 0 496 512;" xml:space="preserve">
<style type="text/css">
	.st0{fill:#FFFFFF;}
</style>
<path class="st0" d="M496,256c0,137-111.2,248-248.4,248C133.8,504,38,427.7,8.6,323.6l95.2,39.3c6.4,32.1,34.9,56.4,68.9,56.4
	c39.2,0,71.9-32.4,70.2-73.5l84.5-60.2c52.1,1.3,95.8-40.9,95.8-93.5c0-51.6-42-93.5-93.7-93.5s-93.7,42-93.7,93.5v1.2L176.6,279
	c-15.5-0.9-30.7,3.4-43.5,12.1L0,236.1C10.2,108.4,117.1,8,247.6,8C384.8,8,496,119,496,256z M155.7,384.3l-30.5-12.6
	c5.6,11.6,15.3,20.8,27.2,25.8c26.9,11.2,57.8-1.6,69-28.4c5.4-13,5.5-27.3,0.1-40.3S206,305.6,193,300.2
	c-12.9-5.4-26.7-5.2-38.9-0.6l31.5,13c19.8,8.2,29.2,30.9,20.9,50.7C198.2,383.2,175.5,392.5,155.7,384.3z M329.5,254.4
	c-34.4,0-62.4-28-62.4-62.3s28-62.3,62.4-62.3s62.4,28,62.4,62.3S364,254.4,329.5,254.4z M329.6,238.8c25.9,0,46.9-21,46.9-46.8
	c0-25.9-21-46.8-46.9-46.8s-46.9,21-46.9,46.8C282.8,217.8,303.8,238.8,329.6,238.8z"/>
</svg>
