<svg xmlns="http://www.w3.org/2000/svg" width="28.664" height="28.654" viewBox="0 0 28.664 28.654">
  <path id="window-close" d="M101.233,95.545l-8.462,8.462,8.462,8.462a1.647,1.647,0,0,1,0,2.315l-3.073,3.073a1.647,1.647,0,0,1-2.315,0L87.382,109.4l-8.462,8.462a1.647,1.647,0,0,1-2.315,0l-3.073-3.073a1.647,1.647,0,0,1,0-2.315l8.462-8.462-8.462-8.462a1.647,1.647,0,0,1,0-2.315L76.6,90.156a1.647,1.647,0,0,1,2.315,0l8.462,8.462,8.462-8.462a1.647,1.647,0,0,1,2.315,0l3.073,3.073a1.622,1.622,0,0,1,0,2.315Z" transform="translate(-73.055 -89.68)" fill="#eee"/>
</svg>
