<svg xmlns="http://www.w3.org/2000/svg" viewBox="0 0 186.04 187.37"><defs><style>.cls-1{fill:#bf1e2d;fill-rule:evenodd;}.cls-2{fill:#fff;}</style></defs><title>logo</title><g id="Layer_2" data-name="Layer 2"><g id="Layer_1-2" data-name="Layer 1"><path id="bg" class="cls-1" d="M47.56,3.45,1.81,4.39c-2.47,9.11,0,4.5,0,14V35.61c-.37,5-1.68,7.5-1.68,14.15,0,2.24-.49,7.37.59,9.13C2.6,62,2.55,64.62,3.36,69.11c.71,4,1.49,3.56-.31,6.57l-.84,7.61,3.91,3.82,0,6.69c-2.33,2.13.28.61-4.64,4.16L2,118.16l4.84,3.52-1,17.21c-5.11,3.67-4,8.11-3.85,12.67l.62,17.17-1.12,8.8c11.45,2.88,8.94,2,22,2,11.57,0,10.08.12,21.51-1.27l.3,1.95c1.77-.11,3.6-.21,5.35-.38,4.86-.47,2.92-1,4.59-1.64,1.22-.44,14.25,2.59,16.37,3a5.72,5.72,0,0,1,2.21-1.83c.88,1.86,4.65,6.14,6.19,8l4.72-4.43L93,186.15l2.42-2c.94,1.12,1.52,2.52,3.2,2.74,2.45.32,2.85-3.74,8.27-3.84l31.37-1,1.08-1,1.6-1.31c2.06,1.25,2.94,2.44,5.77,2.25,8.65-.57,4.12,2.1,15.29,1.5,1.93-.11,1.45-.58,3.15-1.18l3.62-.56c-.79-2.11-1.29-1.81-2.86-3.39l19.88,4c-.27-23.4-.22-51.94.08-76l-5.34.4c.19-1.56,2.52-1,2.7-4.12.23-4,.19-17.51-.39-20.41-.29-1.48-4.06-5.79-5.07-7.14,1.2-3.26,1.32-3,3.54-5.7-.19-1.75-.6-2.22-1.35-4.21l5.83-1.91c.06-3.35.44-16.79.22-21l-2.36-22.95,1.8-5.74.08-5.89c-5-2.91-4.37-3.23-7.87-3.2a50.33,50.33,0,0,1-10.36-.84c-3.86-.88-2.82-1.51-7,2.84l-1.92-4.18c-6-.45-25.41-2.14-30-2.14-5.89,0-5,.44-7,7.12L112.8,8l-1.12-3.65L104,4.26l.81-.89c1.5-1.43,1-.85,2.15-3.37H76.18a8.88,8.88,0,0,1-5.07,4.05c-3.07,1-1.55-.63-3.49,1.11-1.45,1.3-1.7,1.22-4,1.17-3-.06-6.15-.15-9.18-.28a24.26,24.26,0,0,1-4.28-.23c-2.08-.49-1.47-1-2.61-2.37Z"/><g id="face"><path class="cls-2" d="M93,149.27c-32.81,0-59.51-17.81-59.51-39.7a26.73,26.73,0,0,1,.38-4.48A15.08,15.08,0,1,1,51.76,81C62.08,74.34,76,70.17,91.28,69.88l10-30.68,2.2.52h0L127,45.24a12.42,12.42,0,1,1-1,4.88l-21.38-5L96.5,69.94c14.76.57,28.09,4.75,38,11.23a15.08,15.08,0,1,1,17.64,24.22,27.62,27.62,0,0,1,.33,4.18c0,21.89-26.7,39.7-59.51,39.7ZM39,104.86a22.63,22.63,0,0,0-.5,4.71c0,19.15,24.46,34.73,54.53,34.73s54.52-15.58,54.52-34.73a22.42,22.42,0,0,0-.45-4.49,2.56,2.56,0,0,1-.25-1.09c-1.66-6.53-6.2-12.46-12.76-17.24A2.6,2.6,0,0,1,133,86c-10-6.85-24.21-11.15-40-11.15-15.64,0-29.75,4.21-39.71,11a2.44,2.44,0,0,1-1,.69c-6.7,4.79-11.36,10.76-13.09,17.35a2.23,2.23,0,0,1-.21,1Zm99.73-20.69c5.77,4.62,10,10.11,12.17,16.14a10.11,10.11,0,0,0-12.17-16.14Zm-96.92-2A10.1,10.1,0,0,0,35.25,100c2.23-6,6.51-11.43,12.3-16A10.12,10.12,0,0,0,41.77,82.15Zm96.66-39.48a7.44,7.44,0,1,0,7.44,7.44,7.44,7.44,0,0,0-7.44-7.44ZM93.26,135.11c-10,0-17-2.17-21.46-6.65a2.49,2.49,0,0,1,3.52-3.52c3.5,3.5,9.36,5.2,17.94,5.2s14.44-1.7,17.94-5.2a2.49,2.49,0,1,1,3.52,3.52h0c-4.48,4.48-11.5,6.65-21.46,6.65Z"/><path class="cls-2" d="M113.43,93a9.43,9.43,0,0,0-9.33,9.32,9.3,9.3,0,0,0,9.33,9.17,9.16,9.16,0,0,0,9.17-9.17A9.3,9.3,0,0,0,113.43,93Z"/><path class="cls-2" d="M73.24,93a9.42,9.42,0,0,0-9.32,9.32,9.3,9.3,0,0,0,9.32,9.17,9.18,9.18,0,0,0,9.17-9.17A9.3,9.3,0,0,0,73.24,93Z"/></g></g></g></svg>