<svg xmlns="http://www.w3.org/2000/svg" xmlns:xlink="http://www.w3.org/1999/xlink" width="1644.42" height="498.363" viewBox="0 0 1644.42 498.363">
  <defs>
    <clipPath id="clip-path">
      <path id="Path_5" data-name="Path 5" d="M0-187.375H494.8V310.988H0Z" transform="translate(0 187.375)" fill="none"/>
    </clipPath>
  </defs>
  <g id="Group_8" data-name="Group 8" transform="translate(0 -290.387)">
    <g id="Group_6" data-name="Group 6" transform="translate(0 477.762)">
      <g id="Group_5" data-name="Group 5" transform="translate(0 -187.375)" clip-path="url(#clip-path)">
        <g id="Group_1" data-name="Group 1" transform="translate(0 0.002)">
          <path id="Path_1" data-name="Path 1" d="M78.942,5.724l-121.69,2.5c-6.562,24.222-.04,11.961-.024,37.247l-.021,45.784c-.995,13.227-4.476,19.961-4.471,37.646,0,5.955-1.314,19.61,1.551,24.27,5.069,8.258,4.942,15.251,7.075,27.177,1.9,10.6,3.963,9.485-.817,17.477l-2.226,20.246,10.4,10.171.077,17.783c-6.192,5.671.734,1.636-12.354,11.078l1.17,53.71,12.889,9.36-2.694,45.787c-13.594,9.742-10.671,21.562-10.237,33.7l1.662,45.662-2.984,23.4c30.459,7.665,23.783,5.288,58.6,5.285,30.767,0,26.8.317,57.208-3.378l.785,5.184c4.713-.3,9.58-.564,14.224-1.013,12.942-1.258,7.772-2.755,12.227-4.367,3.224-1.17,37.9,6.883,43.537,8.1,3.107-3.482,1.524-2.077,5.865-4.881,2.343,4.952,12.376,16.32,16.461,21.264l12.559-11.788,21.972,8.527,6.436-5.413c2.508,2.966,4.037,6.694,8.516,7.28,6.524.856,7.588-9.95,21.982-10.224l83.451-2.785c1.072-1.032,1.708-1.644,2.857-2.769l4.266-3.471c5.482,3.3,7.82,6.484,15.339,5.984,23.017-1.527,10.971,5.572,40.678,3.974,5.12-.274,3.849-1.532,8.365-3.125l9.644-1.487c-2.1-5.617-3.439-4.83-7.607-9.027l52.864,10.692c-.71-62.224-.574-138.145.215-202.162l-14.214,1.059c.513-4.152,6.71-2.591,7.2-10.947.614-10.53.5-46.577-1.029-54.285-.785-3.936-10.812-15.418-13.493-18.99,3.189-8.671,3.505-8.1,9.413-15.163-.5-4.652-1.591-5.9-3.585-11.192l15.493-5.077c.17-8.913,1.173-44.664.59-55.968l-6.277-61.043,4.8-15.261.207-15.684C432.406,8.852,434.156,8,424.863,8.065c-8.336.056-19.57-.391-27.565-2.218-10.261-2.351-7.506-4.019-18.756,7.532l-5.1-11.118c-16.065-1.192-67.57-5.689-79.823-5.689-15.658,0-13.389,1.173-18.679,18.953l-22.477,2.314-2.99-9.724L229.1,7.884l2.157-2.378c3.982-3.8,2.585-2.266,5.7-8.955l-81.911.008A23.627,23.627,0,0,1,141.559,7.312c-8.157,2.7-4.12-1.657-9.272,2.966-3.859,3.46-4.529,3.245-10.612,3.122-8.072-.165-16.352-.423-24.421-.755-3.721-.154-7.814.221-11.392-.625-5.511-1.3-3.907-2.732-6.921-6.3" transform="translate(47.564 3.449)" fill="#b93026" fill-rule="evenodd"/>
        </g>
        <g id="Group_2" data-name="Group 2" transform="translate(71.013 100.255)">
          <path id="Path_2" data-name="Path 2" d="M110.467,161.687c-26.493,0-45.164-5.79-57.067-17.7a6.617,6.617,0,0,1,9.362-9.354c9.3,9.293,24.895,13.82,47.7,13.82s38.417-4.527,47.726-13.82a6.612,6.612,0,0,1,9.346,9.354c-11.913,11.908-30.576,17.7-57.072,17.7M230.619-84.195a19.81,19.81,0,0,0-19.78,19.788,19.8,19.8,0,0,0,19.78,19.78,19.8,19.8,0,0,0,19.78-19.78,19.805,19.805,0,0,0-19.78-19.788M-26.468,20.826A26.891,26.891,0,0,0-53.326,47.695a26.908,26.908,0,0,0,9.5,20.509c5.947-15.913,17.32-30.406,32.722-42.558a26.9,26.9,0,0,0-15.362-4.819M231.308,26.2c15.341,12.269,26.6,26.884,32.355,42.92A26.875,26.875,0,0,0,231.308,26.2M-33.958,81.234A60.011,60.011,0,0,0-35.28,93.75c0,50.933,65.056,92.361,145.026,92.361S254.772,144.676,254.772,93.75a59.575,59.575,0,0,0-1.21-11.953,6.66,6.66,0,0,1-.654-2.878c-4.426-17.379-16.5-33.159-33.938-45.872a6.551,6.551,0,0,1-2.838-2.013c-26.509-18.227-64.384-29.65-106.386-29.65-41.579,0-79.129,11.2-105.6,29.116A6.749,6.749,0,0,1,1.5,32.345c-17.815,12.721-30.2,28.605-34.8,46.138a6.588,6.588,0,0,1-.553,2.54,2.2,2.2,0,0,1-.1.21m143.7,118.107c-87.268,0-158.258-47.364-158.258-105.59a71.279,71.279,0,0,1,1-11.913A40.13,40.13,0,0,1-66.558,47.695a40.145,40.145,0,0,1,40.09-40.1A39.989,39.989,0,0,1,.1,17.667C27.556.049,64.475-11.04,105.209-11.806l26.741-81.61,5.835,1.378.138.029,62.325,14.676a33.079,33.079,0,0,1,30.379-20.086A33.049,33.049,0,0,1,263.637-64.4a33.051,33.051,0,0,1-33.01,33.012,33.046,33.046,0,0,1-33.012-32.972L140.748-77.75,119.095-11.662c39.249,1.527,74.7,12.65,101.157,29.884a40.1,40.1,0,1,1,46.9,64.407,71.561,71.561,0,0,1,.872,11.12c-.013,58.226-71.009,105.59-158.277,105.59" transform="translate(66.558 97.419)" fill="#fff"/>
        </g>
        <g id="Group_3" data-name="Group 3" transform="translate(276.882 247.417)">
          <path id="Path_3" data-name="Path 3" d="M15.477,0a25.06,25.06,0,0,0-24.8,24.775c0,13.477,11.32,24.4,24.8,24.4a24.391,24.391,0,0,0,24.4-24.4C39.874,11.293,28.954,0,15.477,0" transform="translate(9.325)" fill="#fff"/>
        </g>
        <g id="Group_4" data-name="Group 4" transform="translate(170.014 247.417)">
          <path id="Path_4" data-name="Path 4" d="M15.46,0A25.055,25.055,0,0,0-9.315,24.775c0,13.471,11.3,24.4,24.775,24.4a24.4,24.4,0,0,0,24.4-24.4C39.858,11.306,28.929,0,15.46,0" transform="translate(9.315)" fill="#fff"/>
        </g>
      </g>
    </g>
    <g id="Group_7" data-name="Group 7" transform="translate(512 399)">
      <path id="Path_7" data-name="Path 7" d="M40.11,115.2c0-60.165,0-71.23-.692-84.024-.692-13.485-3.8-19.709-16.943-22.476C19.018,7.661,12.448,7.316,6.57,7.316,2.42,7.316,0,6.624,0,3.858S2.766.4,8.644.4C29.737.4,54.633,1.437,62.931,1.437,76.417,1.437,106.5.4,118.6.4c24.9,0,51.521,2.42,72.959,16.943,11.065,7.607,26.971,27.662,26.971,54.287,0,29.391-12.448,56.362-52.212,88.865,35.269,44.259,62.586,79.529,85.753,104.079,22.13,22.821,38.381,25.587,44.259,26.971a73,73,0,0,0,11.065,1.037c3.112,0,4.841,1.037,4.841,3.112,0,3.112-2.766,3.8-7.607,3.8H267.286c-22.13,0-32.157-2.075-42.531-7.607-16.943-8.99-32.157-27.662-54.287-58.091-15.906-21.784-33.886-48.755-39.073-54.633-2.075-2.42-4.5-2.766-7.261-2.766l-34.578-.692c-2.075,0-3.112.692-3.112,3.112v5.532c0,36.652,0,68.118,2.075,84.715,1.037,11.411,3.458,20.055,15.56,21.784,5.878.692,14.523,1.729,19.364,1.729,3.112,0,4.841,1.037,4.841,3.112,0,2.766-2.766,3.8-7.953,3.8-22.821,0-52.212-1.037-58.091-1.037-7.607,0-32.5,1.037-48.409,1.037-5.187,0-7.953-1.037-7.953-3.8,0-2.075,1.729-3.112,6.224-3.112a50.923,50.923,0,0,0,14.177-1.729c7.953-1.729,10.028-10.373,11.411-21.784,2.075-16.6,2.075-48.063,2.075-84.37V115.2Zm46.68,31.12c0,4.5.692,5.878,3.458,7.261,8.3,2.766,20.055,3.8,30.083,3.8,15.906,0,21.092-1.729,28.008-6.57,11.756-8.644,23.513-26.971,23.513-59.474,0-56.362-37.344-72.613-60.511-72.613-10.028,0-16.943.346-21.092,1.729-2.766.692-3.458,2.42-3.458,5.532Z" transform="translate(0 0.983)" fill="#58585a"/>
      <path id="Path_8" data-name="Path 8" d="M127.91,114.552c0-60.165,0-71.23-.692-83.678-1.037-13.831-4.149-20.055-17.289-22.821C106.818,7.361,99.9,7.016,94.37,7.016c-4.5,0-6.57-.692-6.57-3.458S90.566.1,96.444.1c21.092,0,45.988,1.037,57.053,1.037,12.1,0,37-1.037,60.857-1.037C263.8.1,329.844.1,372.72,45.051,392.43,65.452,411.1,98.3,411.1,145.326c0,49.792-21.092,87.827-43.222,110.3-18.326,18.672-59.128,46.68-132.433,46.68-14.177,0-30.428-1.037-45.3-2.42-14.868-1.037-28.7-2.42-38.727-2.42-4.5,0-13.14,0-22.476.346-8.99,0-19.364.692-27.316.692-5.187,0-7.953-1.037-7.953-3.8,0-2.075,1.729-3.112,6.224-3.112a50.922,50.922,0,0,0,14.177-1.729c7.953-1.729,10.028-10.373,11.411-21.784,2.075-16.6,2.075-47.717,2.075-84.024v-69.5Zm49.446,43.222c0,41.839.346,72.267.692,79.875.346,10.028,1.037,25.587,4.5,30.083,5.187,7.607,20.4,15.906,51.867,15.906,40.456,0,67.081-7.953,90.939-28.354,25.242-21.784,33.195-57.745,33.195-98.546,0-50.138-21.092-82.641-38.035-98.892C283.856,22.921,238.9,18.426,208.13,18.426c-7.953,0-22.475,1.037-25.587,2.766-3.458,1.729-4.841,3.458-4.841,7.953-.346,13.485-.346,47.717-.346,79.183Z" transform="translate(215.792 0.246)" fill="#58585a"/>
      <path id="Path_9" data-name="Path 9" d="M196.532,297.368A5.687,5.687,0,0,1,191,291.836c0-3.112,3.8-6.57,7.607-10.028C252.894,234.091,330,173.58,330,91.977c0-61.2-33.886-73.65-53.25-73.65-16.6,0-29.391,3.112-41.148,13.831-9.336,8.99-16.252,26.971-16.252,37.344,0,3.8-1.037,7.261-5.187,7.261-2.075,0-3.112-2.766-3.458-7.261-.346-3.458-2.42-35.615-2.42-47.026,0-3.458.346-5.187,4.5-7.607C228,7.261,248.745,0,282.977,0c68.118,0,97.163,37.344,97.163,82.641,0,75.034-83.332,140.731-133.47,180.5-2.075,1.383-1.037,2.766.692,2.766h26.279c6.57,0,52.212-.346,66.735-2.42C367,260.37,379.794,247.231,384.635,228.9c1.037-4.5,2.42-6.224,4.5-6.224,2.766,0,3.112,3.458,3.112,7.261,0,6.224-7.261,42.185-11.411,55.324-3.112,10.373-9.336,11.756-33.886,11.756H196.532Z" transform="translate(469.434)" fill="#58585a"/>
      <path id="Path_10" data-name="Path 10" d="M353.861,182.1c0,49.792,0,76.417,8.3,83.332,6.57,5.878,16.6,8.644,47.026,8.644,20.747,0,35.615-.346,45.3-10.719,4.5-5.187,9.336-15.906,10.027-23.167.346-3.458,1.037-5.878,4.149-5.878,2.766,0,3.112,2.075,3.112,6.57,0,4.149-2.766,33.54-5.878,44.605-2.421,8.644-4.149,10.373-24.55,10.373-28.008,0-48.063-.692-65.7-1.037-17.635-.692-31.466-1.037-47.371-1.037-4.149,0-12.794,0-22.13.346-8.99,0-19.018.692-26.625.692-5.187,0-7.607-1.037-7.607-3.8,0-2.075,1.383-3.112,6.224-3.112a68.4,68.4,0,0,0,13.831-1.383c7.607-1.383,9.682-10.028,11.411-21.438,2.075-16.251,2.075-47.026,2.075-82.641V113.978c0-59.128,0-69.847-.692-82.295-.692-13.14-3.8-19.364-16.6-22.13A63.365,63.365,0,0,0,275.37,8.516c-4.149,0-6.57-.692-6.57-3.458S271.566,1.6,277.444,1.6c18.326,0,42.876,1.037,53.25,1.037,9.336,0,37.69-1.037,52.9-1.037,5.532,0,8.3.692,8.3,3.458s-2.421,3.458-6.916,3.458a120.532,120.532,0,0,0-15.214,1.037c-10.373,2.075-13.485,8.644-14.523,22.13-.692,12.448-.692,23.167-.692,82.295V182.1Z" transform="translate(660.648 3.932)" fill="#58585a"/>
    </g>
  </g>
</svg>
