<svg xmlns="http://www.w3.org/2000/svg" viewBox="0 0 186.06 187.36"><defs><style>.cls-1{fill:#fff;}</style></defs><title>logo-white</title><g id="Layer_2" data-name="Layer 2"><g id="Layer_4" data-name="Layer 4"><path class="cls-1" d="M47.53,84a10.14,10.14,0,0,0-5.78-1.85l0,0A10.1,10.1,0,0,0,35.23,100C37.46,94,41.74,88.57,47.53,84Z"/><path class="cls-1" d="M146.83,104c-1.66-6.53-6.2-12.46-12.76-17.24A2.58,2.58,0,0,1,133,86c-10-6.85-24.21-11.15-40-11.15s-29.75,4.21-39.71,11a2.4,2.4,0,0,1-1,.69c-6.7,4.79-11.36,10.76-13.09,17.35a2.17,2.17,0,0,1-.2,1,22.63,22.63,0,0,0-.5,4.71c0,19.15,24.46,34.73,54.53,34.73s54.52-15.58,54.52-34.73a22.57,22.57,0,0,0-.45-4.49A2.56,2.56,0,0,1,146.83,104ZM63.9,102.32A9.43,9.43,0,0,1,73.22,93a9.3,9.3,0,0,1,9.17,9.32,9.18,9.18,0,0,1-9.17,9.17A9.3,9.3,0,0,1,63.9,102.32Zm50.9,26-.1.1c-4.48,4.48-11.5,6.65-21.46,6.65s-17-2.17-21.46-6.65a2.49,2.49,0,0,1,3.52-3.52c3.5,3.5,9.36,5.2,17.94,5.2s14.44-1.7,17.94-5.2a2.49,2.49,0,1,1,3.62,3.42Zm7.78-26a9.15,9.15,0,0,1-9.17,9.15,9.29,9.29,0,0,1-9.33-9.17A9.42,9.42,0,0,1,113.41,93a9.3,9.3,0,0,1,9.17,9.32Z"/><circle class="cls-1" cx="138.45" cy="50.13" r="7.44"/><path class="cls-1" d="M180.51,106.76c.19-1.56,2.52-1,2.7-4.12.23-4,.19-17.51-.39-20.41-.29-1.48-4.06-5.79-5.07-7.14,1.2-3.26,1.32-3,3.54-5.7-.19-1.75-.6-2.22-1.35-4.21l5.83-1.91c.06-3.35.44-16.79.22-21l-2.36-23,1.8-5.74.08-5.89c-5-2.91-4.37-3.23-7.87-3.2a50,50,0,0,1-10.36-.84c-3.86-.88-2.82-1.51-7,2.84l-1.92-4.18c-6-.45-25.41-2.14-30-2.14-5.89,0-5,.44-7,7.12L112.78,8l-1.12-3.65L104,4.26l.81-.89c1.5-1.43,1-.85,2.15-3.37H76.16a8.88,8.88,0,0,1-5.07,4.05c-3.07,1-1.55-.63-3.49,1.11-1.45,1.3-1.7,1.22-4,1.17-3-.06-6.15-.15-9.18-.28a24.52,24.52,0,0,1-4.28-.23c-2.08-.49-1.47-1-2.61-2.37L1.79,4.39c-2.47,9.11,0,4.5,0,14V35.61c-.37,5-1.68,7.5-1.68,14.15,0,2.24-.49,7.37.59,9.13C2.58,62,2.53,64.62,3.34,69.11c.71,4,1.49,3.56-.31,6.57l-.84,7.61L6.1,87.11V93.8c-2.33,2.13.28.61-4.64,4.16L2,118.16l4.84,3.52-1,17.21C.71,142.56,1.82,147,2,151.56l.62,17.17-1.12,8.8c11.45,2.88,8.94,2,22,2,11.57,0,10.08.12,21.51-1.27l.3,2c1.77-.11,3.6-.21,5.35-.38,4.86-.47,2.92-1,4.59-1.64,1.22-.44,14.25,2.59,16.37,3a5.69,5.69,0,0,1,2.21-1.83c.88,1.86,4.65,6.14,6.19,8l4.72-4.43L93,186.15l2.42-2c.94,1.12,1.52,2.52,3.2,2.74,2.45.32,2.85-3.74,8.27-3.84l31.37-1,1.08-1,1.6-1.31c2.06,1.25,2.94,2.44,5.77,2.25,8.65-.57,4.12,2.1,15.29,1.5,1.93-.11,1.45-.58,3.15-1.18l3.62-.56c-.79-2.11-1.29-1.81-2.86-3.39l19.88,4c-.27-23.4-.22-51.94.08-76Zm-25.61-3.4a15,15,0,0,1-2.78,2,26.57,26.57,0,0,1,.33,4.18c0,21.89-26.69,39.69-59.49,39.7h0c-32.8,0-59.49-17.81-59.49-39.7a26.91,26.91,0,0,1,.38-4.48A15.08,15.08,0,1,1,49.3,79.19,15.42,15.42,0,0,1,51.74,81C62.06,74.34,76,70.17,91.26,69.88l10-30.68,2.2.52L127,45.24a12.42,12.42,0,1,1-1,4.88l-21.38-5L96.48,69.94c14.76.57,28.09,4.75,38,11.23a15.08,15.08,0,1,1,20.42,22.19Z"/><polygon class="cls-1" points="47.53 3.45 47.53 3.45 47.54 3.45 47.53 3.45"/><path class="cls-1" d="M138.71,84.17c5.77,4.62,10,10.11,12.17,16.14a10.11,10.11,0,0,0-12.17-16.14Z"/></g></g></svg>